# xmcd CD database file
#
# Track frame offsets:
#	150
#	13752
#	25060
#	40412
#	54150
#	68432
#	78992
#	92265
#	108312
#	116932
#	131322
#	146652
#	160222
#	173312
#	186995
#	197865
#	215132
#	229392
#	241220
#
# Disc length: 3365 seconds
#
# Revision: 1
# Processed by: cddbd v1.5.2PL0 Copyright (c) Steve Scherf et al.
# Submitted via: CDValet v3.40 - Copyright (c) 1996 - 1998 Greg Leichner
#
DISCID=fb0d2313
DTITLE=Louvin, Charlie - Live In Holland
DYEAR=1900
DGENRE=
TTITLE0=When I Stop Dreaming
TTITLE1=Love And Wealth
TTITLE2=The Family Who Prays
TTITLE3=The Hand That Rocks The Cradle
TTITLE4=I Love You Best Of All
TTITLE5=Make Him A Soldier
TTITLE6=Must You Throw Dirt In My Face
TTITLE7=This Darn Pen
TTITLE8=Ruby's Song
TTITLE9=In The Pines
TTITLE10=My Baby's Gone
TTITLE11=Freight Train Boogie
TTITLE12=Mansion On The Hill
TTITLE13=What About You
TTITLE14=The Gospel Way
TTITLE15=Nearer My God To Thee
TTITLE16=Mama's Angels
TTITLE17=You'll Meet Him In The Clouds
TTITLE18=When Is He Coming Again
EXTD=
EXTT0=
EXTT1=
EXTT2=
EXTT3=
EXTT4=
EXTT5=
EXTT6=
EXTT7=
EXTT8=
EXTT9=
EXTT10=
EXTT11=
EXTT12=
EXTT13=
EXTT14=
EXTT15=
EXTT16=
EXTT17=
EXTT18=
PLAYORDER=
